<svg xmlns="http://www.w3.org/2000/svg" viewBox="0 0 200 200" width="200" height="200">
  <rect width="200" height="200" fill="white"/>
  <!-- Position Detection Patterns -->
  <g fill="black">
    <path d="M20 20h50v50H20V20zm10 10v30h30V30H30z"/>
    <rect x="40" y="40" width="10" height="10"/>
    <path d="M130 20h50v50h-50V20zm10 10v30h30V30h-30z"/>
    <rect x="150" y="40" width="10" height="10"/>
    <path d="M20 130h50v50H20v-50zm10 10v30h30v-30H30z"/>
    <rect x="40" y="150" width="10" height="10"/>
  </g>
  <!-- Random "Data" Patterns to look real -->
  <g fill="black">
    <rect x="80" y="20" width="10" height="10"/>
    <rect x="100" y="20" width="10" height="10"/>
    <rect x="110" y="30" width="10" height="30"/>
    <rect x="80" y="40" width="20" height="10"/>
    <rect x="100" y="60" width="10" height="10"/>
    <rect x="20" y="80" width="10" height="10"/>
    <rect x="40" y="80" width="30" height="10"/>
    <rect x="80" y="80" width="10" height="10"/>
    <rect x="100" y="80" width="40" height="10"/>
    <rect x="150" y="80" width="30" height="10"/>
    <rect x="20" y="100" width="40" height="10"/>
    <rect x="70" y="100" width="10" height="20"/>
    <rect x="90" y="100" width="20" height="10"/>
    <rect x="120" y="100" width="10" height="40"/>
    <rect x="140" y="100" width="40" height="10"/>
    <rect x="80" y="130" width="10" height="10"/>
    <rect x="100" y="130" width="20" height="10"/>
    <rect x="130" y="130" width="10" height="10"/>
    <rect x="150" y="130" width="30" height="10"/>
    <rect x="80" y="150" width="30" height="10"/>
    <rect x="120" y="150" width="10" height="10"/>
    <rect x="140" y="150" width="10" height="30"/>
    <rect x="160" y="160" width="20" height="20"/>
    <rect x="80" y="170" width="10" height="10"/>
    <rect x="100" y="170" width="20" height="10"/>
    <rect x="130" y="180" width="30" height="10"/>
  </g>
  <rect x="85" y="135" width="30" height="10" fill="white"/> <!-- Clear text area -->
  <text x="100" y="108" font-family="Arial" font-weight="bold" font-size="16" fill="black" text-anchor="middle" letter-spacing="1">SCAN ME</text>
</svg>
